<?xml version="1.0" encoding="UTF-8"?>
<svg id="Vordergrund" xmlns="http://www.w3.org/2000/svg" version="1.1" xmlns:xlink="http://www.w3.org/1999/xlink" viewBox="0 0 1700.8 566.9">
  <!-- Generator: Adobe Illustrator 29.3.1, SVG Export Plug-In . SVG Version: 2.1.0 Build 151)  -->
  <defs>
    <style>
      .st0 {
        fill: url(#linear-gradient2);
      }

      .st1 {
        clip-path: url(#clippath-4);
      }

      .st2 {
        fill: #b4c6e1;
      }

      .st3 {
        fill: url(#Neues_Verlaufsfeld_6);
      }

      .st4 {
        fill: url(#linear-gradient1);
      }

      .st5 {
        fill: url(#Neues_Verlaufsfeld_7);
      }

      .st6 {
        fill: #71b9ec;
      }

      .st7 {
        clip-path: url(#clippath-1);
      }

      .st8 {
        fill: url(#Neues_Verlaufsfeld_1);
      }

      .st9 {
        isolation: isolate;
      }

      .st10 {
        clip-path: url(#clippath-5);
      }

      .st11 {
        clip-path: url(#clippath-3);
      }

      .st12 {
        fill: url(#Neues_Verlaufsfeld_51);
      }

      .st13 {
        fill: #2a6bb7;
      }

      .st14 {
        fill: url(#Neues_Verlaufsfeld_2);
      }

      .st15 {
        fill: url(#Neues_Verlaufsfeld_3);
      }

      .st16 {
        fill: #181715;
      }

      .st17 {
        clip-path: url(#clippath-2);
      }

      .st18 {
        fill: #0ba1e2;
      }

      .st19 {
        fill: url(#linear-gradient);
      }

      .st20 {
        clip-path: url(#clippath);
      }

      .st21 {
        fill: url(#Neues_Verlaufsfeld_5);
      }
    </style>
    <linearGradient id="Neues_Verlaufsfeld_5" data-name="Neues Verlaufsfeld 5" x1="1508.2" y1="381.4" x2="1413.5" y2="210.6" gradientUnits="userSpaceOnUse">
      <stop offset="0" stop-color="#2a6bb7"/>
      <stop offset="0" stop-color="#2e70ba"/>
      <stop offset="0" stop-color="#5297d5"/>
      <stop offset=".1" stop-color="#68b0e5"/>
      <stop offset=".2" stop-color="#71b9ec"/>
      <stop offset=".2" stop-color="#9acaf1"/>
      <stop offset=".3" stop-color="#abd2f4"/>
      <stop offset=".4" stop-color="#80bfed"/>
      <stop offset=".5" stop-color="#71b9ec"/>
      <stop offset=".6" stop-color="#64a9dc"/>
      <stop offset=".7" stop-color="#4380b4"/>
      <stop offset="1" stop-color="#0f4075"/>
    </linearGradient>
    <clipPath id="clippath">
      <path class="st21" d="M1536.1,365.9c-30.5,17-61,33.9-91.5,50.9.4-.3.9-.5,1.3-.8.4-.3.9-.5,1.3-.8.4-.3.8-.6,1.3-.9.4-.3.8-.6,1.2-.9,6.7-5.1,11.6-11.9,14.9-19.8,3.2-7.8,4.7-16.7,4.7-26.2,0-9.4-1.6-19.3-4.7-29.3-3.1-9.9-7.7-20-13.8-29.6-6.1-9.7-13.3-18.1-21-25.2-7.8-7.1-16.1-12.9-24.7-17-8.6-4.2-17.4-6.8-26-7.4-8.7-.7-17.1.6-24.6,4.2-.7.4-1.5.7-2.2,1.1-.7.4-1.4.8-2.1,1.2-.7.4-1.4.9-2,1.3-.7.5-1.3.9-1.9,1.5l82.1-65.2c.6-.5,1.2-.9,1.9-1.4.6-.4,1.3-.9,2-1.3.7-.4,1.3-.8,2.1-1.2.7-.4,1.4-.7,2.1-1,7.4-3.2,15.8-4,24.5-2.7,8.6,1.3,17.6,4.6,26.5,9.5,8.8,4.9,17.5,11.5,25.6,19.4,8.1,7.9,15.8,17.2,22.5,27.7,6.7,10.5,11.9,21.3,15.6,31.9,3.7,10.7,5.9,21.2,6.5,31.1.6,10-.3,19.3-3,27.4-2.7,8.2-7.2,15.2-13.5,20.2-.4.3-.8.6-1.2.9-.4.3-.8.6-1.2.8-.4.3-.8.5-1.2.8-.4.3-.8.5-1.3.7Z"/>
    </clipPath>
    <linearGradient id="Neues_Verlaufsfeld_51" data-name="Neues Verlaufsfeld 5" x1="1508.2" y1="381.4" x2="1413.5" y2="210.6" xlink:href="#Neues_Verlaufsfeld_5"/>
    <linearGradient id="Neues_Verlaufsfeld_6" data-name="Neues Verlaufsfeld 6" x1="1387.7" y1="276.9" x2="1364.8" y2="237.2" gradientUnits="userSpaceOnUse">
      <stop offset="0" stop-color="#0ba1e2"/>
      <stop offset=".2" stop-color="#0b9cdc"/>
      <stop offset=".4" stop-color="#0b8ecd"/>
      <stop offset=".6" stop-color="#0c78b4"/>
      <stop offset=".8" stop-color="#0d5991"/>
      <stop offset="1" stop-color="#0f4075"/>
    </linearGradient>
    <clipPath id="clippath-1">
      <path class="st3" d="M1344.9,266.8c27.3-21.8,54.7-43.6,82-65.3-2.9,2.3-5.4,5-7.6,8.2-2.2,3.2-4,6.8-5.5,10.7-1.4,4-2.5,8.4-3.1,13.1-.6,4.8-.8,9.8-.5,15.2l-84.3,64.1c0-5.1.5-9.9,1.3-14.5.9-4.5,2.1-8.7,3.8-12.6,1.6-3.9,3.6-7.4,6-10.6,2.3-3.1,5-5.9,8-8.3Z"/>
    </clipPath>
    <linearGradient id="Neues_Verlaufsfeld_7" data-name="Neues Verlaufsfeld 7" x1="1471.6" y1="405.5" x2="1455.5" y2="377.6" gradientUnits="userSpaceOnUse">
      <stop offset="0" stop-color="#0f4075"/>
      <stop offset=".2" stop-color="#0e4b81"/>
      <stop offset=".5" stop-color="#0d69a4"/>
      <stop offset=".9" stop-color="#0b9adb"/>
      <stop offset="1" stop-color="#0ba1e2"/>
    </linearGradient>
    <clipPath id="clippath-2">
      <path class="st5" d="M1537,367.8c-30.6,16.9-61.1,33.8-91.7,50.7-3.7,2-7.6,3.5-11.8,4.5-4.2,1-8.7,1.3-13.3,1.2-4.7-.2-9.5-.9-14.4-2.2-5-1.3-10-3.2-15.1-5.8l91.2-53.8c5.3,3,10.5,5.3,15.6,7,5,1.7,9.9,2.7,14.6,3.1,4.6.4,9.1.2,13.3-.6,4.1-.8,8-2.2,11.6-4.1Z"/>
    </clipPath>
    <linearGradient id="linear-gradient" x1="1375" y1="206.1" x2="1350.5" y2="163.6" gradientUnits="userSpaceOnUse">
      <stop offset="0" stop-color="#dedede"/>
      <stop offset="0" stop-color="#d7d7d7"/>
      <stop offset=".3" stop-color="#a9acad"/>
      <stop offset=".6" stop-color="#878c8f"/>
      <stop offset=".8" stop-color="#73797c"/>
      <stop offset="1" stop-color="#6c7276"/>
    </linearGradient>
    <clipPath id="clippath-3">
      <path class="st19" d="M1291,215.7c21.4-16.9,42.8-33.8,64.2-50.7,5.9-4.6,11.7-9.2,17.6-13.9.6-.4,1.1-.9,1.8-1.3.6-.4,1.2-.8,1.8-1.2.6-.4,1.3-.7,1.9-1.1.6-.3,1.3-.7,2-.9,3.9-1.7,8.2-2.7,12.7-3.1,4.4-.3,9.1,0,13.9,1,4.8,1,9.7,2.6,14.7,4.8,5,2.2,10,5,15,8.4l-82.1,60.1c-4.9-2.9-9.8-5.3-14.6-7.1-4.9-1.8-9.8-3-14.5-3.6-4.8-.6-9.4-.7-13.9,0-4.5.6-8.8,1.9-12.8,3.8-.7.3-1.4.7-2.1,1-.7.4-1.3.7-2,1.1-.6.4-1.3.8-1.9,1.3-.6.4-1.2.9-1.8,1.3Z"/>
    </clipPath>
    <linearGradient id="Neues_Verlaufsfeld_3" data-name="Neues Verlaufsfeld 3" x1="1375" y1="206.1" x2="1350.5" y2="163.6" gradientUnits="userSpaceOnUse">
      <stop offset="0" stop-color="#b4c6e1"/>
      <stop offset=".2" stop-color="#a2b4d1"/>
      <stop offset=".5" stop-color="#8095b5"/>
      <stop offset=".8" stop-color="#6c82a4"/>
      <stop offset="1" stop-color="#657b9e"/>
    </linearGradient>
    <linearGradient id="linear-gradient1" x1="1456.2" y1="327.2" x2="1431.8" y2="292.4" gradientUnits="userSpaceOnUse">
      <stop offset="0" stop-color="#6c7276"/>
      <stop offset=".4" stop-color="#9ea1a4"/>
      <stop offset=".8" stop-color="#cccdcd"/>
      <stop offset="1" stop-color="#dedede"/>
    </linearGradient>
    <clipPath id="clippath-4">
      <path class="st4" d="M1478.7,311.2c-30.3,16.9-60.7,33.8-91,50.7.4-.2.8-.5,1.2-.7.4-.2.8-.5,1.2-.8.4-.2.8-.5,1.2-.8.4-.3.8-.6,1.2-.8,3.5-2.7,6.6-5.9,9.1-9.6,2.5-3.6,4.6-7.7,6.1-12.2,1.5-4.4,2.6-9.2,3.1-14.2.5-5,.6-10.3,0-15.9l87.3-52.4c.8,5.8,1.2,11.4,1,16.6-.2,5.3-.9,10.3-2.2,14.8-1.2,4.6-3,8.8-5.3,12.5-2.3,3.7-5.1,7-8.5,9.6-.4.3-.7.6-1.1.8-.4.3-.7.5-1.1.8-.4.3-.8.5-1.1.7-.4.2-.8.5-1.2.7Z"/>
    </clipPath>
    <linearGradient id="Neues_Verlaufsfeld_1" data-name="Neues Verlaufsfeld 1" x1="1456.2" y1="327.2" x2="1431.8" y2="292.4" gradientUnits="userSpaceOnUse">
      <stop offset="0" stop-color="#657b9e"/>
      <stop offset=".5" stop-color="#a7b7cd"/>
      <stop offset=".8" stop-color="#d5e1ef"/>
      <stop offset="1" stop-color="#e7f2fc"/>
    </linearGradient>
    <linearGradient id="linear-gradient2" x1="1411.6" y1="357.2" x2="1304.9" y2="192.8" gradientUnits="userSpaceOnUse">
      <stop offset="0" stop-color="#6c7276"/>
      <stop offset=".2" stop-color="#9a9fa3"/>
      <stop offset=".4" stop-color="#d0d5d9"/>
      <stop offset=".6" stop-color="#e6eaee"/>
      <stop offset=".7" stop-color="#f4f6f8"/>
      <stop offset=".8" stop-color="#e6eaee"/>
      <stop offset=".9" stop-color="#e1e5e9"/>
      <stop offset=".9" stop-color="#d4d8db"/>
      <stop offset="1" stop-color="#bec2c5"/>
      <stop offset="1" stop-color="#b3b6b9"/>
    </linearGradient>
    <clipPath id="clippath-5">
      <path class="st0" d="M1479.5,313.1l-91.1,50.6c-6.9,3.8-14.6,5.6-22.9,5.4-8.4-.1-17.3-2.2-26.2-6.2-9-4-18-9.8-26.4-17.3-8.5-7.5-16.3-16.7-22.9-27.2-6.4-10.1-11.1-20.6-14.2-31-3.1-10.3-4.5-20.4-4.4-29.7.1-9.3,1.8-17.9,5-25.3,3.1-7.3,7.6-13.5,13.5-18.1,27.2-21.6,54.5-43.2,81.7-64.7-5.6,4.5-9.8,10.7-12.5,18.1-2.7,7.6-4,16.5-3.6,26.3.4,9.9,2.4,20.7,6.2,31.8,3.7,11.2,9.2,22.6,16.2,33.8,7.4,11.6,15.8,21.8,24.8,30.3,8.9,8.4,18.3,15.1,27.7,19.8,9.2,4.7,18.3,7.4,26.7,8,8.3.6,16-.9,22.6-4.5Z"/>
    </clipPath>
    <linearGradient id="Neues_Verlaufsfeld_2" data-name="Neues Verlaufsfeld 2" x1="1411.6" y1="357.2" x2="1304.9" y2="192.8" gradientUnits="userSpaceOnUse">
      <stop offset="0" stop-color="#657b9e"/>
      <stop offset=".4" stop-color="#b5c4d8"/>
      <stop offset=".7" stop-color="#e7f2fc"/>
      <stop offset="1" stop-color="#b4c6e1"/>
    </linearGradient>
  </defs>
  <g>
    <g class="st9">
      <path class="st21" d="M1536.1,365.9c-30.5,17-61,33.9-91.5,50.9.4-.3.9-.5,1.3-.8.4-.3.9-.5,1.3-.8.4-.3.8-.6,1.3-.9.4-.3.8-.6,1.2-.9,6.7-5.1,11.6-11.9,14.9-19.8,3.2-7.8,4.7-16.7,4.7-26.2,0-9.4-1.6-19.3-4.7-29.3-3.1-9.9-7.7-20-13.8-29.6-6.1-9.7-13.3-18.1-21-25.2-7.8-7.1-16.1-12.9-24.7-17-8.6-4.2-17.4-6.8-26-7.4-8.7-.7-17.1.6-24.6,4.2-.7.4-1.5.7-2.2,1.1-.7.4-1.4.8-2.1,1.2-.7.4-1.4.9-2,1.3-.7.5-1.3.9-1.9,1.5l82.1-65.2c.6-.5,1.2-.9,1.9-1.4.6-.4,1.3-.9,2-1.3.7-.4,1.3-.8,2.1-1.2.7-.4,1.4-.7,2.1-1,7.4-3.2,15.8-4,24.5-2.7,8.6,1.3,17.6,4.6,26.5,9.5,8.8,4.9,17.5,11.5,25.6,19.4,8.1,7.9,15.8,17.2,22.5,27.7,6.7,10.5,11.9,21.3,15.6,31.9,3.7,10.7,5.9,21.2,6.5,31.1.6,10-.3,19.3-3,27.4-2.7,8.2-7.2,15.2-13.5,20.2-.4.3-.8.6-1.2.9-.4.3-.8.6-1.2.8-.4.3-.8.5-1.2.8-.4.3-.8.5-1.3.7Z"/>
      <g class="st20">
        <path class="st12" d="M1557.6,317.2c-.3-6.3-1.2-12.9-2.7-19.6-.9-3.7-1.9-7.5-3.2-11.3-1.2-3.8-2.7-7.6-4.3-11.4-1.6-3.8-3.4-7.6-5.5-11.4-2-3.8-4.2-7.6-6.6-11.3-.2-.3-.4-.6-.6-.9-.2-.3-.4-.6-.6-.9-.2-.3-.4-.6-.6-.9-.2-.3-.4-.6-.6-.9-6.7-9.9-14.3-18.7-22.2-26.1-8-7.5-16.5-13.7-25-18.2-8.6-4.6-17.4-7.7-25.7-8.8-8.5-1.1-16.6-.3-23.8,2.8-.7.3-1.4.7-2.1,1-.7.4-1.4.7-2.1,1.2-.7.4-1.3.8-2,1.3-.6.4-1.3.9-1.9,1.4l-82.1,65.2c.6-.5,1.3-1,1.9-1.5.7-.5,1.3-.9,2-1.3.7-.4,1.4-.8,2.1-1.2.7-.4,1.4-.8,2.2-1.1,7.4-3.5,15.5-4.8,23.9-4.3,8.3.5,16.8,2.9,25.2,6.8,8.3,3.8,16.5,9.2,24.1,15.9,7.6,6.6,14.7,14.6,20.8,23.7.2.3.4.5.6.8.2.3.4.6.5.8.2.3.4.6.5.8.2.3.4.6.5.8,2.2,3.5,4.2,7,6,10.5,1.8,3.5,3.4,7.1,4.8,10.6,1.4,3.6,2.6,7.1,3.6,10.7,1,3.6,1.9,7.1,2.5,10.6,1.2,6.3,1.7,12.6,1.5,18.6-.1,6-.9,11.8-2.3,17.2-1.5,5.4-3.6,10.5-6.4,15-2.9,4.6-6.5,8.5-10.8,11.8-.4.3-.8.6-1.2.9-.4.3-.8.6-1.3.9-.4.3-.8.6-1.3.8-.4.3-.9.5-1.3.8l91.5-50.9c.4-.2.9-.5,1.3-.7.4-.3.8-.5,1.2-.8.4-.3.8-.6,1.2-.8.4-.3.8-.6,1.2-.9,4.1-3.2,7.4-7.3,10-11.9,2.5-4.6,4.3-9.8,5.4-15.5,1.1-5.6,1.5-11.7,1.2-18Z"/>
      </g>
    </g>
    <polygon class="st6" points="1411.7 249.3 1327.4 313.2 1325.7 312.7 1410.1 248.6 1411.7 249.3"/>
    <g class="st9">
      <path class="st3" d="M1344.9,266.8c27.3-21.8,54.7-43.6,82-65.3-2.9,2.3-5.4,5-7.6,8.2-2.2,3.2-4,6.8-5.5,10.7-1.4,4-2.5,8.4-3.1,13.1-.6,4.8-.8,9.8-.5,15.2l-84.3,64.1c0-5.1.5-9.9,1.3-14.5.9-4.5,2.1-8.7,3.8-12.6,1.6-3.9,3.6-7.4,6-10.6,2.3-3.1,5-5.9,8-8.3Z"/>
      <g class="st7">
        <path class="st3" d="M1410.1,248.6l-84.3,64.1c0-5.1.5-9.9,1.3-14.5.9-4.5,2.1-8.7,3.8-12.6,1.6-3.9,3.6-7.4,6-10.6,2.3-3.1,5-5.9,8-8.3l82-65.3c-2.9,2.3-5.4,5-7.6,8.2-2.2,3.2-4,6.8-5.5,10.7-1.4,4-2.5,8.4-3.1,13.1-.6,4.8-.8,9.8-.5,15.2"/>
      </g>
    </g>
    <path class="st18" d="M1435.2,196.4c7.6-3.3,16.1-4.1,25.1-2.7,8.8,1.3,17.9,4.7,27,9.8,9,5,17.8,11.7,26.2,19.8,8.3,8.1,16,17.6,22.9,28.3,6.8,10.7,12.2,21.7,15.9,32.5,3.8,10.9,6,21.6,6.7,31.7.7,10.2-.3,19.7-3,27.9-2.8,8.4-7.3,15.5-13.8,20.6-3.6,2.9-7.6,5-12,6.4-4.4,1.4-9.3,2-14.4,1.9-5.2-.1-10.6-1-16.2-2.7-5.7-1.7-11.6-4.3-17.5-7.6l.2-1.8c5.8,3.3,11.6,5.8,17.1,7.4,5.5,1.7,10.8,2.6,15.9,2.7,5,.1,9.7-.5,14.1-1.9,4.3-1.4,8.3-3.4,11.8-6.2,6.3-5,10.8-11.9,13.5-20.2,2.7-8.1,3.6-17.4,3-27.4-.6-9.8-2.8-20.4-6.5-31.1-3.7-10.6-8.9-21.4-15.6-31.9-6.7-10.5-14.3-19.8-22.5-27.7-8.2-8-16.9-14.5-25.6-19.4-8.9-5-17.9-8.3-26.5-9.5-8.7-1.3-17.1-.5-24.5,2.7-4.1,1.8-7.7,4.3-10.9,7.4-3.2,3.1-5.9,6.9-8,11.2-2.1,4.4-3.7,9.3-4.7,14.7-1,5.5-1.3,11.5-1,17.9l-1.7-.7c-.3-6.5,0-12.7,1-18.3,1-5.5,2.6-10.6,4.8-15,2.2-4.4,4.9-8.2,8.2-11.4,3.2-3.2,6.9-5.7,11.1-7.5Z"/>
    <g class="st9">
      <path class="st5" d="M1537,367.8c-30.6,16.9-61.1,33.8-91.7,50.7-3.7,2-7.6,3.5-11.8,4.5-4.2,1-8.7,1.3-13.3,1.2-4.7-.2-9.5-.9-14.4-2.2-5-1.3-10-3.2-15.1-5.8l91.2-53.8c5.3,3,10.5,5.3,15.6,7,5,1.7,9.9,2.7,14.6,3.1,4.6.4,9.1.2,13.3-.6,4.1-.8,8-2.2,11.6-4.1Z"/>
      <g class="st17">
        <path class="st5" d="M1537,367.8l-91.7,50.7c-3.7,2-7.6,3.5-11.8,4.5-4.2,1-8.7,1.3-13.3,1.2-4.7-.2-9.5-.9-14.4-2.2-5-1.3-10-3.2-15.1-5.8l91.2-53.8c5.3,3,10.5,5.3,15.6,7,5,1.7,9.9,2.7,14.6,3.1,4.6.4,9.1.2,13.3-.6,4.1-.8,8-2.2,11.6-4.1"/>
      </g>
    </g>
    <polygon class="st13" points="1481.9 362.4 1390.6 416.1 1390.9 414.4 1482 360.6 1481.9 362.4"/>
    <g class="st9">
      <path class="st19" d="M1291,215.7c21.4-16.9,42.8-33.8,64.2-50.7,5.9-4.6,11.7-9.2,17.6-13.9.6-.4,1.1-.9,1.8-1.3.6-.4,1.2-.8,1.8-1.2.6-.4,1.3-.7,1.9-1.1.6-.3,1.3-.7,2-.9,3.9-1.7,8.2-2.7,12.7-3.1,4.4-.3,9.1,0,13.9,1,4.8,1,9.7,2.6,14.7,4.8,5,2.2,10,5,15,8.4l-82.1,60.1c-4.9-2.9-9.8-5.3-14.6-7.1-4.9-1.8-9.8-3-14.5-3.6-4.8-.6-9.4-.7-13.9,0-4.5.6-8.8,1.9-12.8,3.8-.7.3-1.4.7-2.1,1-.7.4-1.3.7-2,1.1-.6.4-1.3.8-1.9,1.3-.6.4-1.2.9-1.8,1.3Z"/>
      <g class="st11">
        <path class="st15" d="M1436.6,157.8l-82.1,60.1c-4.9-2.9-9.8-5.3-14.6-7.1-4.9-1.8-9.8-3-14.5-3.6-4.8-.6-9.4-.7-13.9,0-4.5.6-8.8,1.9-12.8,3.8-.7.3-1.4.7-2.1,1-.7.4-1.3.7-2,1.1-.6.4-1.3.8-1.9,1.3-.6.4-1.2.9-1.8,1.3l81.8-64.6c.6-.4,1.1-.9,1.8-1.3.6-.4,1.2-.8,1.8-1.2.6-.4,1.3-.7,1.9-1.1.6-.3,1.3-.7,2-.9,3.9-1.7,8.2-2.7,12.7-3.1,4.4-.3,9.1,0,13.9,1,4.8,1,9.7,2.6,14.7,4.8,5,2.2,10,5,15,8.4"/>
      </g>
    </g>
    <g class="st9">
      <path class="st4" d="M1478.7,311.2c-30.3,16.9-60.7,33.8-91,50.7.4-.2.8-.5,1.2-.7.4-.2.8-.5,1.2-.8.4-.2.8-.5,1.2-.8.4-.3.8-.6,1.2-.8,3.5-2.7,6.6-5.9,9.1-9.6,2.5-3.6,4.6-7.7,6.1-12.2,1.5-4.4,2.6-9.2,3.1-14.2.5-5,.6-10.3,0-15.9l87.3-52.4c.8,5.8,1.2,11.4,1,16.6-.2,5.3-.9,10.3-2.2,14.8-1.2,4.6-3,8.8-5.3,12.5-2.3,3.7-5.1,7-8.5,9.6-.4.3-.7.6-1.1.8-.4.3-.7.5-1.1.8-.4.3-.8.5-1.1.7-.4.2-.8.5-1.2.7Z"/>
      <g class="st1">
        <path class="st8" d="M1498.5,257.5c0-.2,0-.5,0-.7,0-.2,0-.5,0-.7,0-.2,0-.5,0-.7,0-.2,0-.5-.1-.7l-87.3,52.4c0,.2,0,.4,0,.7,0,.2,0,.4,0,.7,0,.2,0,.4,0,.7,0,.2,0,.5,0,.7.3,5.2.1,10.3-.5,15-.6,4.8-1.7,9.3-3.3,13.5-1.6,4.2-3.6,8.1-6.1,11.5-2.5,3.5-5.4,6.5-8.8,9.1-.4.3-.8.6-1.2.8-.4.3-.8.5-1.2.8-.4.3-.8.5-1.2.8-.4.3-.8.5-1.2.7l91-50.7c.4-.2.8-.4,1.2-.7.4-.2.8-.5,1.1-.7.4-.3.8-.5,1.1-.8.4-.3.7-.5,1.1-.8,3.2-2.5,5.9-5.6,8.2-9.2,2.2-3.5,4-7.5,5.3-11.8,1.3-4.3,2.1-9,2.4-14,.3-4.9.2-10.2-.5-15.7Z"/>
      </g>
    </g>
    <g class="st9">
      <path class="st0" d="M1479.5,313.1l-91.1,50.6c-6.9,3.8-14.6,5.6-22.9,5.4-8.4-.1-17.3-2.2-26.2-6.2-9-4-18-9.8-26.4-17.3-8.5-7.5-16.3-16.7-22.9-27.2-6.4-10.1-11.1-20.6-14.2-31-3.1-10.3-4.5-20.4-4.4-29.7.1-9.3,1.8-17.9,5-25.3,3.1-7.3,7.6-13.5,13.5-18.1,27.2-21.6,54.5-43.2,81.7-64.7-5.6,4.5-9.8,10.7-12.5,18.1-2.7,7.6-4,16.5-3.6,26.3.4,9.9,2.4,20.7,6.2,31.8,3.7,11.2,9.2,22.6,16.2,33.8,7.4,11.6,15.8,21.8,24.8,30.3,8.9,8.4,18.3,15.1,27.7,19.8,9.2,4.7,18.3,7.4,26.7,8,8.3.6,16-.9,22.6-4.5Z"/>
      <g class="st10">
        <path class="st14" d="M1459.5,317.8c-7.5-.1-15.5-2-23.6-5.5-8.3-3.5-16.7-8.6-25-15.2-8.3-6.6-16.3-14.7-23.6-24.1-.8-1.1-1.7-2.1-2.5-3.2-.8-1.1-1.6-2.2-2.4-3.3-.8-1.1-1.6-2.3-2.3-3.4-.8-1.1-1.5-2.3-2.3-3.5-3.6-5.7-6.8-11.5-9.6-17.3-2.7-5.8-5.1-11.6-6.9-17.3-1.9-5.7-3.3-11.3-4.3-16.7-1-5.4-1.5-10.7-1.7-15.7-.1-4.8.2-9.3.8-13.6.6-4.2,1.6-8.2,3-11.9,1.4-3.6,3.1-7,5.2-9.9,2.1-2.9,4.4-5.5,7.2-7.7l-81.7,64.7c-2.8,2.3-5.4,4.9-7.6,7.8-2.2,2.9-4.1,6.2-5.7,9.8-1.5,3.6-2.8,7.4-3.6,11.5-.9,4.1-1.4,8.4-1.5,13-.1,4.8.1,9.7.8,14.8.7,5.1,1.8,10.3,3.3,15.6,1.5,5.3,3.5,10.6,5.9,15.9,2.4,5.3,5.3,10.6,8.5,15.8.7,1.1,1.4,2.1,2.1,3.2.7,1,1.4,2.1,2.1,3.1.7,1,1.5,2,2.2,3,.7,1,1.5,2,2.3,2.9,6.8,8.4,14.3,15.6,22.1,21.4,7.8,5.8,15.9,10.2,24,13.1,8,2.8,15.9,4.2,23.3,4,7.3-.2,14.3-2,20.4-5.4l91.1-50.6c-5.9,3.3-12.7,4.8-20.1,4.7Z"/>
      </g>
    </g>
    <path class="st2" d="M1379.2,144.9c4-1.8,8.4-2.8,13-3.1,4.5-.3,9.3,0,14.2,1.1,4.9,1,9.9,2.7,15,4.9,5.1,2.2,10.2,5.1,15.3,8.6v1.4c-5.1-3.4-10.2-6.2-15.1-8.4-5-2.2-9.9-3.8-14.7-4.8-4.8-1-9.5-1.3-13.9-1-4.5.3-8.7,1.4-12.7,3.1-7.3,3.2-13,8.6-16.9,15.7-4,7.3-6.2,16.3-6.5,26.4-.3,10.3,1.3,21.7,5,33.6,3.7,12,9.3,24.4,17,36.5,7.7,12.1,16.5,22.6,26,31.2,9.4,8.5,19.2,15.1,28.8,19.5,9.5,4.3,18.8,6.5,27.3,6.3,8.4-.2,15.9-2.7,22.2-7.6,3.3-2.6,6.2-5.9,8.5-9.6,2.3-3.7,4.1-7.9,5.3-12.5,1.2-4.5,2-9.5,2.2-14.8.2-5.3-.1-10.8-1-16.6l1.3.5c.9,6,1.2,11.7,1,17-.2,5.4-.9,10.5-2.2,15.1-1.3,4.7-3.1,9-5.4,12.8-2.3,3.8-5.2,7.1-8.6,9.8-6.4,5.1-14.1,7.6-22.6,7.8-8.7.2-18.2-2-27.9-6.4-9.9-4.5-19.9-11.2-29.5-19.9-9.6-8.8-18.7-19.5-26.5-31.9-7.8-12.3-13.6-25-17.4-37.3-3.7-12.2-5.4-23.9-5.1-34.4.3-10.4,2.6-19.5,6.7-26.9,4-7.3,9.8-12.8,17.3-16Z"/>
  </g>
  <path class="st18" d="M1190.4,195c4.8,1.3,10.8,3.9,15.7,9,2.7,2.7,4,4.5,5.8,7.9,2.6,5,3.3,8.4,3.6,14.1.2,3,0,4.8-.3,7.8-.4,2.9-.6,4.5-1.5,7.2-1.1,3.1-1.9,4.8-3.8,7.6-3.4,5.1-6,7-11.6,10.5-1.5.9-4,1.8-4,1.8,0,0,2.3.6,3.7,1.2,3.2,1.3,5.2,2.2,7.6,4.7,2,2,2.8,3.5,3.9,6.1.9,2,1.2,3.3,1.5,5.4.5,2.7.2,2.8.3,7.1l.4,22.8s.3,2.7.7,4.4c.8,3.1,3.3,7.4,3.3,7.4h-45.2s-1.4-1.7-2.1-2.9c-1.3-2.1-1.8-4-2.4-5.8-1.5-4.3-1.1-10-1.1-10,0,0,.4-2.5-.4-14.6,0-1.5-.4-3.2-1.4-4.9-.8-1.4-1.4-2-2.5-3-.9-.8-1.4-1.2-2.4-1.8-1.8-1-3-1.3-5.1-1.3h-40v44.4h-47.7v-126.2h112.9c2.6,0,6.4-.2,12,1.3ZM1169.1,235.8c0-1.4,0-2.2-.4-3.4-.4-1.3-.8-2.1-1.8-3.2-.8-.9-1.4-1.3-2.6-1.9-1.6-.8-2.6-1-4.4-1h-46.6s0,18.9,0,18.9h46.6c1.7,0,2.8-.2,4.4-1,1.1-.6,1.7-1,2.6-1.9,1-1.1,1.4-1.8,1.8-3.2.4-1.3.4-2.1.4-3.4ZM248.9,192.4c4.2.7,5.4.7,10.8,2.2,6.1,1.7,6.3,1.8,11.4,4.6,2.8,1.5,4.5,2.6,7.1,4.7,1.8,1.4,2.7,2.2,4.3,3.8,2.6,2.7,3.9,4.4,5.8,7.6,1.1,1.9,1.5,3.1,2.3,5.2,1.3,3.4,1.8,5.5,2.2,9.1l.2,2.1h-58.6s0-2-.4-3.3c-.4-1.7-.7-2.7-1.7-4.1-1.1-1.6-2-2.4-3.7-3.4-1.4-.9-2.3-1.1-3.8-1.6-2.9-1-4.6-1.2-7.6-1.5-4.2-.5-6.7-.7-10.9-.2-2,.2-2.4.2-5,.9-2,.6-6,2.1-6.7,5.4-.3,1.3-.4,2.2.2,3.5.6,1.2,1.2,1.8,2.4,2.4,2.6,1.2,2.8,1.4,4.8,1.9,8.7,2.1,11.3,2.2,18.5,3.5,13.4,2.5,21,3.5,34.4,6,4.3.8,6.8,1.1,11.1,2.1,3.1.8,4.9,1.1,7.8,2.2,3,1.1,4.8,1.7,7.5,3.5,2.4,1.6,3.7,2.7,5.7,4.8,1.9,2,2.9,3.3,4.4,5.6,2.4,3.6,3.6,5.8,4.8,9.9.9,2.9,1.1,4.6,1.4,7.6.3,2.6.4,4.1.2,6.6-.1,1.5-.3,2.3-.6,3.7-.6,2.8-1,4.4-2.2,7-.8,1.7-1.3,2.6-2.3,4.2-1.4,2.3-2.3,3.5-4.1,5.5-1.9,2.1-3,3.3-5.2,5-2.2,1.8-3.6,2.7-6.1,4-3.2,1.8-5.2,2.6-8.7,3.9-4.4,1.6-7,2.2-11.6,3.2-5.3,1.1-8.3,1.5-13.6,2.1-4.4.4-6.9.5-11.3.7-7.4.3-11.5.3-18.9,0-9-.4-14.2-.5-23.1-2.1-6.5-1.2-10.2-1.8-16.4-4-4.2-1.5-6.6-2.3-10.5-4.5-4.2-2.4-6.5-4.1-10-7.4-2-1.9-3.2-3-4.9-5.3-2.1-2.8-3-4.6-4.3-7.9-.7-1.8-1.1-2.9-1.5-4.9-.5-2.3-.7-6-.7-6h60.7s-.2,1.4,1.7,3.9c.9,1.2,1.5,1.9,2.6,2.9,1.4,1.2,2.3,1.8,3.9,2.7,1.8,1,3,1.3,4.9,1.9,3.6,1,5.8,1,9.5.9,3.1,0,4.8-.2,7.8-1,3-.8,4.4-1.2,7.2-3.2,1.3-.9,1.9-1.9,2.4-3.4.6-1.8.6-3.1-.3-4.8-.7-1.5-2.2-2.5-3.2-2.9-2.5-1.1-3.7-1.1-8.8-2.1-14.5-2.8-18.3-3.3-30.1-5.6-6.7-1.3-8.8-1.5-17.1-3.4-7.2-1.6-10.3-2.2-17.9-5.8-3.5-1.7-5.5-2.9-8.5-5.4-3.2-2.8-4.8-4.6-7-8.3-2.9-4.6-3.9-7.8-4.8-13.1-.6-3.5-.8-6.3-.4-9.1.8-5.6,1.3-8,3.6-12.4,1-2,1.4-2.9,3-4.8,3.7-4.3,5.2-5.3,9.1-7.9,2.3-1.5,3.7-2.2,6.2-3.3,3.2-1.4,4.1-1.6,8.6-2.9,3.4-1,6.4-1.6,10.5-2.3,4.6-.8,7.2-1,11.9-1.4,7.2-.6,11.3-.7,18.5-.6,6.7,0,10.5.2,17.2.8,6.2.5,9.7.9,15.8,2ZM513.3,240.8h53.2v-47.1h47.9v126.2h-47.9v-48.7h-53.2v48.7h-47.9v-126.2h47.9v47.1ZM655.3,217.6h-33.1v-23.8h33.1v23.8ZM912.7,226.1h-77.2v15.6h68.1v29.6h-68.1v48.7h-48.5v-126.2h125.7v32.4ZM1057.4,226.1h-91.3v15.5h72.3v29.6h-72.3v16.2h94v32.5h-142.1v-126.2h139.4v32.4ZM779.6,217.6h-33.1v-23.8h33.1v23.8ZM684.6,278.3h30.9l-15.4-40.3-15.4,40.3ZM782.6,319.9h-52.1l-5.1-12.1h-51.5l-4.5,12.2h-50.1l50.1-126.2h62.8l50.4,126.2ZM400.8,190.3c4.6.6,7.1,1,11.6,2.1,4.5,1.1,7.1,1.7,11.4,3.3,5.9,2.2,9.1,3.5,14.4,7.1,4.9,3.3,6.3,4.8,9,7.9,2.8,3.2,3.9,4.7,5.9,8.1,3.5,5.9,4.9,9.4,6.2,16.4.5,2.9.6,7.5.6,7.5h-51.6s0-2-.3-3.2c-.3-1.8-.7-2.8-1.5-4.6-1-2.2-1.8-3.3-3.2-5.2-1.3-1.6-2-2.5-3.6-3.9-2.4-2.1-4-3-7-4.2-2.4-1-3.9-1.3-6.5-1.7-2.5-.4-4-.5-6.5-.4-2.7,0-4.2.2-6.8.8-2.8.7-4.5,1.2-7,2.7-2.6,1.5-3.9,2.6-5.9,4.9-1.4,1.6-2.1,2.7-3.2,4.6-1.5,2.6-2.2,4.2-3.1,7.1-.9,2.6-1.1,4.2-1.5,6.9-.4,2.9-.5,4.6-.5,7.6,0,4.1.2,7,.9,10.5.8,4.1,2.1,7.9,4.1,11.8,1,2,2.8,4.7,4.4,6.5,2.4,2.8,8.8,7.4,15.7,8.5,2.2.4,3.5.4,5.8.4,2.8,0,4.4,0,7.2-.7,2-.4,3.1-.7,5-1.5,1.8-.8,2.9-1.4,4.5-2.6,2-1.4,3.1-2.4,4.7-4.3,1.2-1.4,1.8-2.3,2.6-3.9.9-1.8,1.4-2.8,1.9-4.7.6-2,.8-5.3.8-5.3h51.8s0,2.3-.5,5.4c-.8,4.1-1.5,6.4-3.4,10.8-1.3,2.9-2.4,4.4-4.2,7-1.9,2.8-3.1,4.3-5.4,6.8-2.1,2.3-3.4,3.5-5.8,5.6-5.6,4.9-9.3,7.2-16,10.5-3.1,1.5-4.9,2.3-8.2,3.4-8.2,3-13.2,3.8-21.9,4.8-6.6.8-10.4.9-17.1.8-6.2,0-9.8-.3-15.8-1.1-5.9-.8-10.8-1.7-17.3-4-7.1-2.5-11.1-4.5-17.5-8.5-5.5-3.5-11.3-9-13.2-11.6-3.3-4.3-5.3-7.3-7.5-12.2-3-6.4-4.5-12.3-5.6-20.5-.6-4.2-.8-6.6-.8-10.9,0-3.8,0-6,.4-9.8.4-3.4.7-5.4,1.5-8.7.7-3,1.1-4.8,2.2-7.7,1.4-3.9,2.4-6.1,4.5-9.6,1.7-2.8,2.8-4.3,4.9-6.8,2.5-2.9,4.1-4.3,7.1-6.6,3.1-2.4,5-3.5,8.4-5.4,2.9-1.6,4.6-2.5,7.7-3.8,3-1.2,4.8-1.8,8-2.7,3.8-1.1,5.9-1.6,9.8-2.3,4.7-.9,7.4-1.3,12.2-1.7,4.3-.4,6.8-.5,11.2-.6,2.5,0,4,0,6.5,0,6.1.1,9.5.3,15.5,1.1Z"/>
  <g>
    <path class="st16" d="M144.6,367.8c3.4-.7,10.3-1.2,16.7-1.2s12.7.8,16.9,3.2c4,2.1,6.9,6,6.9,11.2s-3,9.8-9.4,12.2v.2c6.5,1.8,11.4,6.7,11.4,14.1s-2.4,9.2-5.9,12.1c-4.2,3.3-11.1,5.2-22.5,5.2s-11.1-.4-14-.8v-56.2ZM157.4,389.7h4.2c6.8,0,10.4-2.8,10.4-7s-3.3-6.6-9.2-6.6-4.4.2-5.5.3v13.3ZM157.4,415.1c1.3.2,2.8.2,5,.2,5.9,0,11-2.2,11-8.2s-5.2-8.1-11.6-8.1h-4.4v16.1Z"/>
    <path class="st16" d="M233.9,400.1h-21v13.6h23.5v10.6h-36.5v-57.2h35.3v10.6h-22.3v11.9h21v10.5Z"/>
    <path class="st16" d="M260.7,377.9h-15.4v-10.9h44v10.9h-15.6v46.3h-13v-46.3Z"/>
    <path class="st16" d="M300.3,367.8c4.2-.7,10.4-1.2,17.2-1.2s14.4,1.3,18.5,4.5c3.4,2.7,5.3,6.7,5.3,12s-5.2,12.3-10.1,14.1v.3c4,1.6,6.2,5.4,7.6,10.7,1.8,6.4,3.6,13.9,4.7,16.1h-13.2c-.9-1.6-2.3-6.3-4-13.3-1.5-7.1-4-9.1-9.2-9.2h-3.9v22.5h-12.8v-56.4ZM313.1,392.4h5.1c6.4,0,10.3-3.2,10.3-8.2s-3.6-7.9-9.5-8c-3.1,0-4.9.3-5.9.4v15.8Z"/>
    <path class="st16" d="M367.6,367.1v57.2h-13v-57.2h13Z"/>
    <path class="st16" d="M416.9,400.1h-21v13.6h23.5v10.6h-36.5v-57.2h35.3v10.6h-22.3v11.9h21v10.5Z"/>
    <path class="st16" d="M432.3,367.8c3.4-.7,10.3-1.2,16.7-1.2s12.7.8,16.9,3.2c4,2.1,6.9,6,6.9,11.2s-3,9.8-9.4,12.2v.2c6.5,1.8,11.4,6.7,11.4,14.1s-2.4,9.2-5.9,12.1c-4.2,3.3-11.1,5.2-22.5,5.2s-11.1-.4-14-.8v-56.2ZM445.1,389.7h4.2c6.8,0,10.4-2.8,10.4-7s-3.3-6.6-9.2-6.6-4.4.2-5.5.3v13.3ZM445.1,415.1c1.3.2,2.8.2,5,.2,5.9,0,11-2.2,11-8.2s-5.2-8.1-11.6-8.1h-4.4v16.1Z"/>
    <path class="st16" d="M488,410.9c3.5,1.8,8.8,3.6,14.3,3.6s9.1-2.5,9.1-6.2-2.7-5.6-9.6-8.1c-9.5-3.3-15.7-8.6-15.7-16.9s8.1-17.2,21.6-17.2,11.2,1.4,14.6,2.9l-2.9,10.4c-2.3-1.1-6.4-2.7-12-2.7s-8.3,2.5-8.3,5.5,3.2,5.3,10.6,8.1c10.1,3.7,14.8,9,14.8,17.1s-7.4,17.7-23.1,17.7-13-1.7-16.2-3.5l2.6-10.7Z"/>
    <path class="st16" d="M571.5,400.1h-21v13.6h23.5v10.6h-36.5v-57.2h35.3v10.6h-22.3v11.9h21v10.5Z"/>
    <path class="st16" d="M599.9,367.1v57.2h-13v-57.2h13Z"/>
    <path class="st16" d="M615.2,424.3v-57.2h15.1l11.9,21c3.4,6,6.8,13.2,9.3,19.6h.3c-.8-7.6-1.1-15.3-1.1-23.8v-16.7h11.9v57.2h-13.6l-12.2-22.1c-3.4-6.1-7.1-13.5-9.9-20.2h-.3c.3,7.6.5,15.7.5,25v17.2h-11.9Z"/>
    <path class="st16" d="M677.8,367.8c4.2-.7,10.4-1.2,17.2-1.2s14.4,1.3,18.5,4.5c3.4,2.7,5.3,6.7,5.3,12s-5.2,12.3-10.1,14.1v.3c4,1.6,6.2,5.4,7.6,10.7,1.8,6.4,3.6,13.9,4.7,16.1h-13.2c-.9-1.6-2.3-6.3-4-13.3-1.5-7.1-4-9.1-9.2-9.2h-3.9v22.5h-12.8v-56.4ZM690.6,392.4h5.1c6.4,0,10.3-3.2,10.3-8.2s-3.6-7.9-9.5-8c-3.1,0-4.9.3-5.9.4v15.8Z"/>
    <path class="st16" d="M745.2,367.1v57.2h-13v-57.2h13Z"/>
    <path class="st16" d="M802.4,422.7c-2.4,1.2-7.7,2.5-14.7,2.5-19.8,0-30-12.3-30-28.6s13.9-30.4,31.2-30.4,11.8,1.4,14.1,2.5l-2.6,10.3c-2.6-1.1-6.3-2.1-10.9-2.1-10.3,0-18.2,6.2-18.2,18.9s6.8,18.7,18.3,18.7,8.2-.8,10.8-1.9l2,10.1Z"/>
    <path class="st16" d="M828,367.1v22h21.3v-22h12.9v57.2h-12.9v-23.9h-21.3v23.9h-13v-57.2h13Z"/>
    <path class="st16" d="M888.6,377.9h-15.4v-10.9h44v10.9h-15.6v46.3h-13v-46.3Z"/>
    <path class="st16" d="M941,367.1v32.9c0,9.8,3.7,14.8,10.4,14.8s10.5-4.8,10.5-14.8v-32.9h12.9v32.1c0,17.7-8.9,26.1-23.8,26.1s-22.9-8-22.9-26.2v-31.9h13Z"/>
    <path class="st16" d="M990,424.3v-57.2h15.1l11.9,21c3.4,6,6.8,13.2,9.3,19.6h.3c-.8-7.6-1.1-15.3-1.1-23.8v-16.7h11.9v57.2h-13.6l-12.2-22.1c-3.4-6.1-7.1-13.5-9.9-20.2h-.3c.3,7.6.5,15.7.5,25v17.2h-11.9Z"/>
    <path class="st16" d="M1100.4,421.6c-4,1.4-11.5,3.2-19.1,3.2s-18-2.6-23.2-7.7c-5.3-4.9-8.1-12.4-8.1-20.8,0-19,13.9-29.9,32.7-29.9s13.1,1.4,15.9,2.8l-2.7,10.4c-3.1-1.4-7-2.5-13.3-2.5-10.8,0-18.9,6.1-18.9,18.5s7.4,18.8,18,18.8,5.3-.3,6.4-.8v-12h-8.8v-10.1h21.3v30.1Z"/>
    <path class="st16" d="M1148.6,400.1h-21v13.6h23.5v10.6h-36.5v-57.2h35.3v10.6h-22.3v11.9h21v10.5Z"/>
    <path class="st16" d="M1164,424.3v-57.2h15.1l11.9,21c3.4,6,6.8,13.2,9.3,19.6h.3c-.8-7.6-1.1-15.3-1.1-23.8v-16.7h11.9v57.2h-13.6l-12.2-22.1c-3.4-6.1-7.1-13.5-9.9-20.2h-.3c.3,7.6.5,15.7.5,25v17.2h-11.9Z"/>
  </g>
</svg>