<svg version="1.2" xmlns="http://www.w3.org/2000/svg" viewBox="-6.358458323315489 2.6146331098468707 42.71691664663098 40.77073378030626" width="60" height="60"><style>.a{fill:#065066}.b{fill:#fcd300}</style><path fill-rule="evenodd" class="a" d="m15 43.4c-11.8 0-21.4-9.1-21.4-20.4 0-11.3 9.6-20.4 21.4-20.4 11.8 0 21.4 9.1 21.4 20.4 0 11.3-9.6 20.4-21.4 20.4z"/><path class="b" d="m11.2 35.8c6.1 0 10.5-3 10.5-8.2 0-5.8-6-7.1-9.9-7.9-2.8-0.6-3.8-0.9-3.8-1.8 0-1 0.9-1.7 2.9-1.7 2 0 4.7 0.7 6.9 2.1l3.1-5.5c-2.8-1.7-5.9-2.7-9.5-2.7-4.8 0-10.8 1.7-10.8 8.6 0 4.7 2.8 5.7 10.2 7.5 2.5 0.6 3.3 0.9 3.3 1.8 0 1.1-1 1.7-2.8 1.7-2.5 0-6.4-1.2-8.4-2.8l-2.9 5.4c1.7 1.3 6.3 3.5 11.2 3.5z"/><path class="b" d="m27.7 35.8c2.1 0 3.8-1.7 3.8-3.8 0-2.1-1.7-3.8-3.8-3.8-2.1 0-3.8 1.7-3.8 3.8 0 2.1 1.7 3.8 3.8 3.8z"/></svg>
